<?xml version="1.0" standalone="no"?>
<!DOCTYPE svg PUBLIC "-//W3C//DTD SVG 20010904//EN"
 "http://www.w3.org/TR/2001/REC-SVG-20010904/DTD/svg10.dtd">
<svg version="1.0" xmlns="http://www.w3.org/2000/svg"
 width="500.000000pt" height="500.000000pt" viewBox="0 0 500.000000 500.000000"
 preserveAspectRatio="xMidYMid meet">

<g transform="translate(0.000000,500.000000) scale(0.100000,-0.100000)"
fill="#FFFFFF" stroke="none">
<path d="M512 4488 c-17 -17 -17 -1079 0 -1096 17 -17 1079 -17 1096 0 17 17
17 1079 0 1096 -17 17 -1079 17 -1096 0z m946 -551 l2 -397 -397 2 -398 3 -3
385 c-1 212 0 391 3 398 3 10 88 12 397 10 l393 -3 3 -398z"/>
<path d="M832 4168 c-17 -17 -17 -439 0 -456 17 -17 439 -17 456 0 17 17 17
439 0 456 -17 17 -439 17 -456 0z"/>
<path d="M1780 4420 l0 -80 160 0 160 0 0 80 0 80 -160 0 -160 0 0 -80z"/>
<path d="M2740 4420 l0 -80 -80 0 -80 0 0 -80 0 -80 -160 0 -160 0 0 -160 0
-160 -80 0 -80 0 0 80 0 80 -80 0 -80 0 0 80 0 80 -80 0 -80 0 0 -240 0 -240
80 0 80 0 0 -80 0 -80 -80 0 -80 0 0 -80 0 -80 80 0 80 0 0 -80 0 -80 -80 0
-80 0 0 -160 0 -160 -240 0 -240 0 0 80 0 80 -80 0 -80 0 0 80 0 80 -320 0
-320 0 0 -80 0 -80 160 0 160 0 0 -80 0 -80 -160 0 -160 0 0 -240 0 -240 80 0
80 0 0 160 0 160 160 0 160 0 0 -80 0 -80 -80 0 -80 0 0 -80 0 -80 160 0 160
0 0 240 0 240 80 0 80 0 0 -160 0 -160 80 0 80 0 0 -80 0 -79 -77 -3 -78 -3
-3 -77 -3 -78 -319 0 -320 0 0 -80 0 -80 -80 0 -80 0 0 -80 0 -80 80 0 80 0 0
80 0 80 80 0 80 0 0 -160 0 -160 80 0 80 0 0 80 0 80 80 0 80 0 0 -80 0 -80
80 0 80 0 0 240 0 240 80 0 80 0 0 -80 0 -80 80 0 80 0 0 80 0 80 80 0 80 0 0
80 0 80 -80 0 -80 0 0 80 0 80 80 0 80 0 0 160 0 160 160 0 160 0 0 80 0 80
-80 0 -80 0 0 80 0 80 80 0 80 0 0 80 0 80 80 0 80 0 0 -80 0 -80 80 0 80 0 0
80 0 80 80 0 80 0 0 160 0 160 -80 0 -80 0 0 160 0 160 80 0 80 0 0 -80 0 -80
80 0 80 0 0 -320 0 -320 -80 0 -80 0 0 -80 0 -80 80 0 80 0 0 -80 0 -80 320 0
320 0 0 160 0 160 -80 0 -80 0 0 480 0 480 -80 0 -80 0 0 80 0 80 80 0 80 0 0
80 0 80 -80 0 -80 0 0 -80 0 -80 -80 0 -80 0 0 80 0 80 -80 0 -80 0 0 -80z
m160 -320 l0 -240 80 0 80 0 0 -240 0 -240 -22 -5 c-13 -3 -48 -4 -78 -2 l-55
3 -3 242 -2 242 -80 0 -80 0 0 240 0 240 80 0 80 0 0 -240z m-480 -560 l0
-160 -80 0 -80 0 0 80 0 80 -80 0 -80 0 0 -80 0 -80 -80 0 -80 0 0 80 0 80 80
0 80 0 0 80 0 80 160 0 160 0 0 -160z m640 -400 l0 -80 -80 0 -80 0 0 80 0 80
80 0 80 0 0 -80z m-1920 -160 l0 -80 -80 0 -80 0 0 80 0 80 80 0 80 0 0 -80z
m482 -307 c3 -38 3 -74 0 -80 -3 -9 -29 -13 -83 -13 l-79 0 0 80 0 80 79 0 79
0 4 -67z m-2 -333 l0 -80 -80 0 -80 0 0 80 0 80 80 0 80 0 0 -80z"/>
<path d="M3392 4488 c-17 -17 -17 -1079 0 -1096 17 -17 1079 -17 1096 0 17 17
17 1079 0 1096 -17 17 -1079 17 -1096 0z m946 -551 l2 -397 -397 2 -398 3 -3
385 c-1 212 0 391 3 398 3 10 88 12 397 10 l393 -3 3 -398z"/>
<path d="M3712 4168 c-17 -17 -17 -439 0 -456 17 -17 439 -17 456 0 17 17 17
439 0 456 -17 17 -439 17 -456 0z"/>
<path d="M1460 3140 l0 -80 80 0 80 0 0 80 0 80 -80 0 -80 0 0 -80z"/>
<path d="M3700 3140 l0 -80 -80 0 -80 0 0 -80 0 -80 160 0 160 0 0 -160 0
-160 -80 0 -80 0 0 80 0 80 -240 0 -240 0 0 -80 0 -80 80 0 80 0 0 -80 0 -80
80 0 80 0 0 -160 0 -160 240 0 240 0 0 240 0 240 80 0 80 0 0 -400 0 -400
-160 0 -160 0 0 80 0 80 -240 0 -240 0 0 160 0 160 -80 0 -80 0 0 80 0 80 -80
0 -80 0 0 160 0 160 -80 0 -80 0 0 -80 0 -80 -80 0 -80 0 0 80 0 80 -240 0
-240 0 0 -160 0 -160 -80 0 -80 0 0 80 0 81 -77 -3 -78 -3 -3 -157 -3 -158 81
0 80 0 0 -80 0 -80 -160 0 -160 0 0 -240 0 -240 80 0 80 0 0 -80 0 -80 240 0
240 0 0 -80 0 -80 -240 0 -240 0 0 -80 0 -80 -80 0 -80 0 0 -320 0 -320 240 0
240 0 0 160 0 160 80 0 80 0 0 80 0 80 80 0 80 0 0 -160 0 -160 -80 0 -80 0 0
-80 0 -80 160 0 160 0 0 80 0 80 80 0 80 0 0 -80 0 -80 80 0 80 0 0 240 0 240
80 0 80 0 0 -160 0 -160 80 0 80 0 0 80 0 80 80 0 80 0 0 160 0 160 80 0 80 0
0 -80 0 -80 80 0 80 0 0 -80 0 -80 -80 0 -80 0 0 -80 0 -80 80 0 80 0 0 80 0
80 80 0 80 0 0 -160 0 -160 240 0 240 0 0 160 0 160 -80 0 -80 0 0 80 0 80 80
0 80 0 0 320 0 320 -160 0 -160 0 0 80 0 80 80 0 80 0 0 80 0 80 80 0 80 0 0
80 0 80 -80 0 -80 0 0 80 0 80 80 0 80 0 0 480 0 480 -80 0 -80 0 0 -160 0
-160 -240 0 -240 0 0 80 0 80 160 0 160 0 0 80 0 80 -240 0 -240 0 0 -80z
m640 -480 l0 -80 -80 0 -80 0 0 80 0 80 80 0 80 0 0 -80z m-1600 -240 l0 -160
80 0 80 0 0 -80 0 -80 160 0 160 0 0 -80 0 -80 -80 0 -80 0 0 -80 0 -80 -160
0 -160 0 0 80 0 80 -80 0 -80 0 0 -80 0 -80 -80 0 -80 0 0 -80 0 -80 -80 0
-80 0 0 80 0 80 -160 0 -160 0 0 80 0 80 80 0 80 0 0 80 0 80 80 0 80 0 0 80
0 80 80 0 80 0 0 160 0 160 160 0 160 0 0 -160z m1120 -80 l0 -80 -80 0 -80 0
0 80 0 80 80 0 80 0 0 -80z m-160 -800 l0 -240 -240 0 -240 0 0 240 0 240 240
0 240 0 0 -240z m-960 -80 l0 -160 -80 0 -80 0 0 -80 0 -80 160 0 160 0 0
-160 0 -160 -80 0 -80 0 0 80 0 80 -80 0 -80 0 0 80 0 80 -80 0 -80 0 0 -80 0
-80 -80 0 -80 0 0 80 0 80 80 0 80 0 0 80 0 80 80 0 80 0 0 160 0 160 80 0 80
0 0 -160z m320 80 l0 -80 -80 0 -80 0 0 80 0 80 80 0 80 0 0 -80z m960 0 l0
-80 80 0 80 0 0 -80 0 -80 80 0 80 0 0 -80 0 -80 -80 0 -80 0 0 -80 0 -80
-160 0 -160 0 0 320 0 320 80 0 80 0 0 -80z m-640 -480 l0 -80 -80 0 -80 0 0
80 0 80 80 0 80 0 0 -80z m-1280 -160 l0 -80 -80 0 -80 0 0 80 0 80 80 0 80 0
0 -80z"/>
<path d="M2420 2100 l0 -160 -80 0 -80 0 0 -80 0 -80 80 0 80 0 0 80 0 80 80
0 80 0 0 160 0 160 -80 0 -80 0 0 -160z"/>
<path d="M2740 2020 l0 -80 80 0 80 0 0 80 0 80 -80 0 -80 0 0 -80z"/>
<path d="M3380 1540 l0 -80 80 0 80 0 0 80 0 80 -80 0 -80 0 0 -80z"/>
<path d="M4020 1220 l0 -80 80 0 80 0 0 80 0 80 -80 0 -80 0 0 -80z"/>
<path d="M1460 1860 l0 -80 80 0 80 0 0 80 0 80 -80 0 -80 0 0 -80z"/>
<path d="M512 1608 c-17 -17 -17 -1079 0 -1096 17 -17 1079 -17 1096 0 17 17
17 1079 0 1096 -17 17 -1079 17 -1096 0z m946 -551 l2 -397 -397 2 -398 3 -3
385 c-1 212 0 391 3 398 3 10 88 12 397 10 l393 -3 3 -398z"/>
<path d="M832 1288 c-17 -17 -17 -439 0 -456 17 -17 439 -17 456 0 17 17 17
439 0 456 -17 17 -439 17 -456 0z"/>
</g>
</svg>
